<!-- <?xml version="1.0" standalone="no"?>
<!DOCTYPE svg PUBLIC "-//W3C//DTD SVG 20010904//EN"
 "http://www.w3.org/TR/2001/REC-SVG-20010904/DTD/svg10.dtd">
<svg version="1.0" xmlns="http://www.w3.org/2000/svg"
 width="44.000000pt" height="44.000000pt" viewBox="0 0 44.000000 44.000000"
 preserveAspectRatio="xMidYMid meet">
<metadata>
Created by potrace 1.15, written by Peter Selinger 2001-2017
</metadata>
<g transform="translate(0.000000,44.000000) scale(0.100000,-0.100000)"
fill="#ff5777" stroke="none">
<path d="M0 405 c0 -8 6 -15 14 -15 21 0 23 -6 46 -136 31 -181 13 -165 187
-162 187 4 194 21 11 28 -116 4 -133 7 -136 22 -3 16 9 18 136 18 100 0 142 4
149 13 18 22 35 158 22 173 -9 11 -49 14 -180 14 -156 0 -169 1 -169 18 0 26
-20 42 -52 42 -18 0 -28 -5 -28 -15z m394 -83 c2 -4 -1 -35 -7 -67 l-12 -60
-131 -3 -132 -3 -11 64 c-6 35 -11 67 -11 70 0 10 298 9 304 -1z"/>
</g>
</svg> -->

<svg t="1653763416521" class="icon" viewBox="0 0 1024 1024" version="1.1" xmlns="http://www.w3.org/2000/svg" p-id="20430" width="48" height="48"><path d="M330.667 768a53.333 53.333 0 1 1 0 106.667 53.333 53.333 0 0 1 0-106.667z m384 0a53.333 53.333 0 1 1 0 106.667 53.333 53.333 0 0 1 0-106.667zM94.763 160h54.741a96 96 0 0 1 92.907 71.787l1.024 4.394 13.205 62.486h0.213L299.733 504l32.491 157.333h402.219l61.653-298.666H313.813l-13.376-64h495.68a64 64 0 0 1 62.678 76.949L797.14 674.283a64 64 0 0 1-62.698 51.05H332.224a64 64 0 0 1-62.677-51.05L208.96 380.864l-0.405 0.085-27.734-131.562a32 32 0 0 0-28.309-25.238l-2.987-0.149H94.741v-64h54.742z" p-id="20431" fill="#b0352f"></path></svg>