<!-- <?xml version="1.0" standalone="no"?>
<!DOCTYPE svg PUBLIC "-//W3C//DTD SVG 20010904//EN"
 "http://www.w3.org/TR/2001/REC-SVG-20010904/DTD/svg10.dtd">
<svg version="1.0" xmlns="http://www.w3.org/2000/svg"
 width="44.000000pt" height="44.000000pt" viewBox="0 0 44.000000 44.000000"
 preserveAspectRatio="xMidYMid meet">
<metadata>
Created by potrace 1.15, written by Peter Selinger 2001-2017
</metadata>
<g transform="translate(0.000000,44.000000) scale(0.100000,-0.100000)"
fill="#ff5777" stroke="none">
<path d="M110 339 c-97 -81 -118 -109 -81 -109 19 0 20 -7 23 -102 l3 -103 60
0 60 0 5 45 c7 55 15 70 40 70 25 0 33 -15 40 -70 l5 -45 60 0 60 0 3 102 c3
96 4 103 23 103 13 0 19 6 17 15 -4 20 -189 175 -208 174 -8 0 -58 -36 -110
-80z m186 -26 l65 -56 -3 -101 -3 -101 -30 0 c-28 0 -30 2 -33 45 -4 57 -25
80 -72 80 -47 0 -68 -23 -72 -80 -3 -43 -5 -45 -33 -45 l-30 0 -3 100 -3 100
63 57 c35 32 69 57 76 58 8 0 43 -25 78 -57z"/>
</g>
</svg> -->

<svg t="1653763260935" class="icon" viewBox="0 0 1024 1024" version="1.1" xmlns="http://www.w3.org/2000/svg" p-id="19458" width="48" height="48"><path d="M556.586667 159.36l288.490666 183.914667A64 64 0 0 1 874.666667 397.248v392.746667a64 64 0 0 1-64 64H555.456l0.021333-196.992H490.666667v196.992H234.666667a64 64 0 0 1-64-64v-398.293334a64 64 0 0 1 30.272-54.4l287.530666-178.346666a64 64 0 0 1 68.138667 0.426666zM810.666667 790.016V397.226667L522.197333 213.333333 234.666667 391.68v398.336h192v-197.013333h192.810666v196.992H810.666667z" p-id="19459" fill="#b0352f"></path></svg>